<svg xmlns="http://www.w3.org/2000/svg" viewBox="0 0 64 64">
  <rect width="64" height="64" rx="14" fill="#111111"/>
  <circle cx="32" cy="32" r="25" fill="none" stroke="#c8a76a" stroke-width="2.6"/>
  <path d="M22 49 30 14h6l-8 35h-6Z" fill="#d8c08c"/>
  <path d="M28 37 47 28l-2.2 5.4-19 8.6L28 37Z" fill="#c8a76a"/>
  <path d="M41.2 22.8c4.8 0 8.1 3.2 8.1 7.8 0 4.9-3.6 8.3-8.4 8.3-2.2 0-4.2-.7-5.8-2l2.1-5.5c.9 1.1 2.2 1.8 3.8 1.8 1.9 0 3.2-1.1 3.2-2.8 0-1.6-1.2-2.6-3-2.6-1.2 0-2.4.4-3.3 1.2l1.3-5.3c.6-.5 1.3-.9 2-.9Z" fill="#5e8ea9"/>
  <circle cx="43.6" cy="27.6" r="1.1" fill="#f5efe2"/>
  <path d="M32 49v7M28.5 52.5h7" stroke="#f0c46d" stroke-width="2.4" stroke-linecap="round"/>
</svg>
